<?xml version="1.0" encoding="UTF-8" standalone="no"?>
<svg xmlns="http://www.w3.org/2000/svg" viewBox="0.00in 0.00in 3.36in 11.73in" width="3.36in" height="11.73in">
<defs>
    <style type="text/css">
        text {
            font-family: Optima, Rachana, Sawasdee, sans-serif;
        }
    </style>
</defs>
<g transform="matrix(1.000000 0.000000 0.000000 1.000000 27.600000 12.000000)">
  <rect x="-0.287in" y="-0.125in" width="3.362in" height="11.725in" fill="#fff"/>
  <g>
    <rect x="0in" y="0in" width="1.500in" height="1in" fill="#C7E3EC" stroke="#336DA5" stroke-width="0.028in"/>
    <text x="0.750in" y="0.417in" style="text-anchor: middle; dominant-baseline: middle; font-family: Optima, Rachana, Sawasdee, sans-serif;">C66 COREPAC</text>
    <text x="0.750in" y="0.583in" style="text-anchor: middle; dominant-baseline: middle; font-family: Optima, Rachana, Sawasdee, sans-serif;">RAT REGION</text>
    <text x="1.550in" y="1in" style="dominant-baseline: middle; font-family: Optima, Rachana, Sawasdee, sans-serif;">0x20000000</text>
    <text x="1.550in" y="0.050in" style="dominant-baseline: hanging; font-family: Optima, Rachana, Sawasdee, sans-serif;">0x100000000</text>
    <text x="2.950in" y="0.500in" style="text-anchor: end; dominant-baseline: middle; font-family: Optima, Rachana, Sawasdee, sans-serif;">3584.0 MiB</text>
    <path fill="#fff" stroke="none" d="M 0 96 L 0 123.40 C 5.20 128.60 10.40 128.60 15.60 123.40 C 20.80 118.20 123.20 128.60 128.40 123.40 C 133.60 118.20 138.80 118.20 144 123.40 L 144 96 M 0 156 L 0 128.60 C 5.20 133.80 10.40 133.80 15.60 128.60 C 20.80 123.40 123.20 133.80 128.40 128.60 C 133.60 123.40 138.80 123.40 144 128.60 L 144 156"/>
    <path fill="none" stroke="#336DA5" stroke-width="0.028in" d="M 0 96 L 0 123.40 M -15.60 123.40 C -10.40 118.20 -5.20 118.20 0 123.40 C 5.20 128.60 10.40 128.60 15.60 123.40 M 0 156 L 0 128.60 M -15.60 128.60 C -10.40 123.40 -5.20 123.40 0 128.60 C 5.20 133.80 10.40 133.80 15.60 128.60 M 144 96 L 144 123.40 M 128.40 123.40 C 133.60 118.20 138.80 118.20 144 123.40 C 149.20 128.60 154.40 128.60 159.60 123.40 M 144 156 L 144 128.60 M 128.40 128.60 C 133.60 123.40 138.80 123.40 144 128.60 C 149.20 133.80 154.40 133.80 159.60 128.60"/>
    <text x="1.550in" y="1.625in" style="dominant-baseline: middle; font-family: Optima, Rachana, Sawasdee, sans-serif;">0x8020000</text>
    <text x="2.950in" y="1.312in" style="text-anchor: end; dominant-baseline: middle; font-family: Optima, Rachana, Sawasdee, sans-serif;">393088.0 KiB</text>
    <rect x="0in" y="1.625in" width="1.500in" height="1in" fill="#C7E3EC" stroke="#336DA5" stroke-width="0.028in"/>
    <text x="0.750in" y="2.042in" style="text-anchor: middle; dominant-baseline: middle; font-family: Optima, Rachana, Sawasdee, sans-serif;">C66 COREPAC</text>
    <text x="0.750in" y="2.208in" style="text-anchor: middle; dominant-baseline: middle; font-family: Optima, Rachana, Sawasdee, sans-serif;">XMC EDI</text>
    <text x="1.550in" y="2.625in" style="dominant-baseline: middle; font-family: Optima, Rachana, Sawasdee, sans-serif;">0x8010000</text>
    <text x="2.950in" y="2.125in" style="text-anchor: end; dominant-baseline: middle; font-family: Optima, Rachana, Sawasdee, sans-serif;">64.0 KiB</text>
    <rect x="0in" y="2.625in" width="1.500in" height="1in" fill="#C7E3EC" stroke="#336DA5" stroke-width="0.028in"/>
    <text x="0.750in" y="3.042in" style="text-anchor: middle; dominant-baseline: middle; font-family: Optima, Rachana, Sawasdee, sans-serif;">C66 COREPAC</text>
    <text x="0.750in" y="3.208in" style="text-anchor: middle; dominant-baseline: middle; font-family: Optima, Rachana, Sawasdee, sans-serif;">XMC MMR</text>
    <text x="1.550in" y="3.625in" style="dominant-baseline: middle; font-family: Optima, Rachana, Sawasdee, sans-serif;">0x8000000</text>
    <text x="2.950in" y="3.125in" style="text-anchor: end; dominant-baseline: middle; font-family: Optima, Rachana, Sawasdee, sans-serif;">64.0 KiB</text>
    <rect x="0in" y="3.625in" width="1.500in" height="1in" fill="#C7E3EC" stroke="#336DA5" stroke-width="0.028in"/>
    <text x="0.750in" y="4.042in" style="text-anchor: middle; dominant-baseline: middle; font-family: Optima, Rachana, Sawasdee, sans-serif;">C66 COREPAC</text>
    <text x="0.750in" y="4.208in" style="text-anchor: middle; dominant-baseline: middle; font-family: Optima, Rachana, Sawasdee, sans-serif;">C66 RATCFG</text>
    <text x="1.550in" y="4.625in" style="dominant-baseline: middle; font-family: Optima, Rachana, Sawasdee, sans-serif;">0x7FF0000</text>
    <text x="2.950in" y="4.125in" style="text-anchor: end; dominant-baseline: middle; font-family: Optima, Rachana, Sawasdee, sans-serif;">64.0 KiB</text>
    <path fill="#fff" stroke="none" d="M 0 444 L 0 471.40 C 5.20 476.60 10.40 476.60 15.60 471.40 C 20.80 466.20 123.20 476.60 128.40 471.40 C 133.60 466.20 138.80 466.20 144 471.40 L 144 444 M 0 504 L 0 476.60 C 5.20 481.80 10.40 481.80 15.60 476.60 C 20.80 471.40 123.20 481.80 128.40 476.60 C 133.60 471.40 138.80 471.40 144 476.60 L 144 504"/>
    <path fill="none" stroke="#336DA5" stroke-width="0.028in" d="M 0 444 L 0 471.40 M -15.60 471.40 C -10.40 466.20 -5.20 466.20 0 471.40 C 5.20 476.60 10.40 476.60 15.60 471.40 M 0 504 L 0 476.60 M -15.60 476.60 C -10.40 471.40 -5.20 471.40 0 476.60 C 5.20 481.80 10.40 481.80 15.60 476.60 M 144 444 L 144 471.40 M 128.40 471.40 C 133.60 466.20 138.80 466.20 144 471.40 C 149.20 476.60 154.40 476.60 159.60 471.40 M 144 504 L 144 476.60 M 128.40 476.60 C 133.60 471.40 138.80 471.40 144 476.60 C 149.20 481.80 154.40 481.80 159.60 476.60"/>
    <text x="1.550in" y="5.250in" style="dominant-baseline: middle; font-family: Optima, Rachana, Sawasdee, sans-serif;">0x2600000</text>
    <text x="2.950in" y="4.938in" style="text-anchor: end; dominant-baseline: middle; font-family: Optima, Rachana, Sawasdee, sans-serif;">92096.0 KiB</text>
    <rect x="0in" y="5.250in" width="1.500in" height="1in" fill="#C7E3EC" stroke="#336DA5" stroke-width="0.028in"/>
    <text x="0.750in" y="5.667in" style="text-anchor: middle; dominant-baseline: middle; font-family: Optima, Rachana, Sawasdee, sans-serif;">C66 COREPAC</text>
    <text x="0.750in" y="5.833in" style="text-anchor: middle; dominant-baseline: middle; font-family: Optima, Rachana, Sawasdee, sans-serif;">EXTERNAL CFG</text>
    <text x="1.550in" y="6.250in" style="dominant-baseline: middle; font-family: Optima, Rachana, Sawasdee, sans-serif;">0x1C00000</text>
    <text x="2.950in" y="5.750in" style="text-anchor: end; dominant-baseline: middle; font-family: Optima, Rachana, Sawasdee, sans-serif;">10.0 MiB</text>
    <rect x="0in" y="6.250in" width="1.500in" height="1in" fill="#C7E3EC" stroke="#336DA5" stroke-width="0.028in"/>
    <text x="0.750in" y="6.667in" style="text-anchor: middle; dominant-baseline: middle; font-family: Optima, Rachana, Sawasdee, sans-serif;">C66 COREPAC</text>
    <text x="0.750in" y="6.833in" style="text-anchor: middle; dominant-baseline: middle; font-family: Optima, Rachana, Sawasdee, sans-serif;">ICFG</text>
    <text x="1.550in" y="7.250in" style="dominant-baseline: middle; font-family: Optima, Rachana, Sawasdee, sans-serif;">0x1000000</text>
    <text x="2.950in" y="6.750in" style="text-anchor: end; dominant-baseline: middle; font-family: Optima, Rachana, Sawasdee, sans-serif;">12.0 MiB</text>
    <path fill="#fff" stroke="none" d="M 0 696 L 0 723.40 C 5.20 728.60 10.40 728.60 15.60 723.40 C 20.80 718.20 123.20 728.60 128.40 723.40 C 133.60 718.20 138.80 718.20 144 723.40 L 144 696 M 0 756 L 0 728.60 C 5.20 733.80 10.40 733.80 15.60 728.60 C 20.80 723.40 123.20 733.80 128.40 728.60 C 133.60 723.40 138.80 723.40 144 728.60 L 144 756"/>
    <path fill="none" stroke="#336DA5" stroke-width="0.028in" d="M 0 696 L 0 723.40 M -15.60 723.40 C -10.40 718.20 -5.20 718.20 0 723.40 C 5.20 728.60 10.40 728.60 15.60 723.40 M 0 756 L 0 728.60 M -15.60 728.60 C -10.40 723.40 -5.20 723.40 0 728.60 C 5.20 733.80 10.40 733.80 15.60 728.60 M 144 696 L 144 723.40 M 128.40 723.40 C 133.60 718.20 138.80 718.20 144 723.40 C 149.20 728.60 154.40 728.60 159.60 723.40 M 144 756 L 144 728.60 M 128.40 728.60 C 133.60 723.40 138.80 723.40 144 728.60 C 149.20 733.80 154.40 733.80 159.60 728.60"/>
    <text x="1.550in" y="7.875in" style="dominant-baseline: middle; font-family: Optima, Rachana, Sawasdee, sans-serif;">0xF08000</text>
    <text x="2.950in" y="7.562in" style="text-anchor: end; dominant-baseline: middle; font-family: Optima, Rachana, Sawasdee, sans-serif;">992.0 KiB</text>
    <rect x="0in" y="7.875in" width="1.500in" height="0.675in" fill="#C7E3EC" stroke="#336DA5" stroke-width="0.028in"/>
    <text x="0.750in" y="8.129in" style="text-anchor: middle; dominant-baseline: middle; font-family: Optima, Rachana, Sawasdee, sans-serif;">C66 COREPAC</text>
    <text x="0.750in" y="8.296in" style="text-anchor: middle; dominant-baseline: middle; font-family: Optima, Rachana, Sawasdee, sans-serif;">L1D</text>
    <text x="1.550in" y="8.550in" style="dominant-baseline: middle; font-family: Optima, Rachana, Sawasdee, sans-serif;">0xF00000</text>
    <text x="2.950in" y="8.213in" style="text-anchor: end; dominant-baseline: middle; font-family: Optima, Rachana, Sawasdee, sans-serif;">32.0 KiB</text>
    <path fill="#fff" stroke="none" d="M 0 820.80 L 0 848.20 C 5.20 853.40 10.40 853.40 15.60 848.20 C 20.80 843 123.20 853.40 128.40 848.20 C 133.60 843 138.80 843 144 848.20 L 144 820.80 M 0 880.80 L 0 853.40 C 5.20 858.60 10.40 858.60 15.60 853.40 C 20.80 848.20 123.20 858.60 128.40 853.40 C 133.60 848.20 138.80 848.20 144 853.40 L 144 880.80"/>
    <path fill="none" stroke="#336DA5" stroke-width="0.028in" d="M 0 820.80 L 0 848.20 M -15.60 848.20 C -10.40 843 -5.20 843 0 848.20 C 5.20 853.40 10.40 853.40 15.60 848.20 M 0 880.80 L 0 853.40 M -15.60 853.40 C -10.40 848.20 -5.20 848.20 0 853.40 C 5.20 858.60 10.40 858.60 15.60 853.40 M 144 820.80 L 144 848.20 M 128.40 848.20 C 133.60 843 138.80 843 144 848.20 C 149.20 853.40 154.40 853.40 159.60 848.20 M 144 880.80 L 144 853.40 M 128.40 853.40 C 133.60 848.20 138.80 848.20 144 853.40 C 149.20 858.60 154.40 858.60 159.60 853.40"/>
    <text x="1.550in" y="9.175in" style="dominant-baseline: middle; font-family: Optima, Rachana, Sawasdee, sans-serif;">0xE08000</text>
    <text x="2.950in" y="8.863in" style="text-anchor: end; dominant-baseline: middle; font-family: Optima, Rachana, Sawasdee, sans-serif;">992.0 KiB</text>
    <rect x="0in" y="9.175in" width="1.500in" height="0.675in" fill="#C7E3EC" stroke="#336DA5" stroke-width="0.028in"/>
    <text x="0.750in" y="9.429in" style="text-anchor: middle; dominant-baseline: middle; font-family: Optima, Rachana, Sawasdee, sans-serif;">C66 COREPAC</text>
    <text x="0.750in" y="9.596in" style="text-anchor: middle; dominant-baseline: middle; font-family: Optima, Rachana, Sawasdee, sans-serif;">L1P</text>
    <text x="1.550in" y="9.850in" style="dominant-baseline: middle; font-family: Optima, Rachana, Sawasdee, sans-serif;">0xE00000</text>
    <text x="2.950in" y="9.513in" style="text-anchor: end; dominant-baseline: middle; font-family: Optima, Rachana, Sawasdee, sans-serif;">32.0 KiB</text>
    <path fill="#fff" stroke="none" d="M 0 945.60 L 0 973.00 C 5.20 978.20 10.40 978.20 15.60 973.00 C 20.80 967.80 123.20 978.20 128.40 973.00 C 133.60 967.80 138.80 967.80 144 973.00 L 144 945.60 M 0 1005.60 L 0 978.20 C 5.20 983.40 10.40 983.40 15.60 978.20 C 20.80 973.00 123.20 983.40 128.40 978.20 C 133.60 973.00 138.80 973.00 144 978.20 L 144 1005.60"/>
    <path fill="none" stroke="#336DA5" stroke-width="0.028in" d="M 0 945.60 L 0 973.00 M -15.60 973.00 C -10.40 967.80 -5.20 967.80 0 973.00 C 5.20 978.20 10.40 978.20 15.60 973.00 M 0 1005.60 L 0 978.20 M -15.60 978.20 C -10.40 973.00 -5.20 973.00 0 978.20 C 5.20 983.40 10.40 983.40 15.60 978.20 M 144 945.60 L 144 973.00 M 128.40 973.00 C 133.60 967.80 138.80 967.80 144 973.00 C 149.20 978.20 154.40 978.20 159.60 973.00 M 144 1005.60 L 144 978.20 M 128.40 978.20 C 133.60 973.00 138.80 973.00 144 978.20 C 149.20 983.40 154.40 983.40 159.60 978.20"/>
    <text x="1.550in" y="10.475in" style="dominant-baseline: middle; font-family: Optima, Rachana, Sawasdee, sans-serif;">0x848000</text>
    <text x="2.950in" y="10.163in" style="text-anchor: end; dominant-baseline: middle; font-family: Optima, Rachana, Sawasdee, sans-serif;">5856.0 KiB</text>
    <rect x="0in" y="10.475in" width="1.500in" height="1in" fill="#C7E3EC" stroke="#336DA5" stroke-width="0.028in"/>
    <text x="0.750in" y="10.892in" style="text-anchor: middle; dominant-baseline: middle; font-family: Optima, Rachana, Sawasdee, sans-serif;">C66 COREPAC</text>
    <text x="0.750in" y="11.058in" style="text-anchor: middle; dominant-baseline: middle; font-family: Optima, Rachana, Sawasdee, sans-serif;">L2</text>
    <text x="1.550in" y="11.425in" style="font-family: Optima, Rachana, Sawasdee, sans-serif;">0x800000</text>
    <text x="2.950in" y="10.975in" style="text-anchor: end; dominant-baseline: middle; font-family: Optima, Rachana, Sawasdee, sans-serif;">288.0 KiB</text>
  </g>
</g>

</svg>
