<?xml version="1.0" encoding="UTF-8" standalone="no"?>
<svg xmlns="http://www.w3.org/2000/svg" viewBox="0.00in 0.00in 3.36in 15.60in" width="3.36in" height="15.60in">
<defs>
    <style type="text/css">
        text {
            font-family: Optima, Rachana, Sawasdee, sans-serif;
        }
    </style>
</defs>
<g transform="matrix(1.000000 0.000000 0.000000 1.000000 27.600000 12.000000)">
  <rect x="-0.287in" y="-0.125in" width="3.362in" height="15.600in" fill="#fff"/>
  <g>
    <rect x="0in" y="0in" width="1.500in" height="1in" fill="#C7E3EC" stroke="#336DA5" stroke-width="0.028in"/>
    <text x="0.750in" y="0.333in" style="text-anchor: middle; dominant-baseline: middle; font-family: Optima, Rachana, Sawasdee, sans-serif;">DDR</text>
    <text x="0.750in" y="0.500in" style="text-anchor: middle; dominant-baseline: middle; font-family: Optima, Rachana, Sawasdee, sans-serif;">C66X_1</text>
    <text x="0.750in" y="0.667in" style="text-anchor: middle; dominant-baseline: middle; font-family: Optima, Rachana, Sawasdee, sans-serif;">SCRATCH</text>
    <text x="1.550in" y="1in" style="dominant-baseline: middle; font-family: Optima, Rachana, Sawasdee, sans-serif;">0xDD000000</text>
    <text x="1.550in" y="0.050in" style="dominant-baseline: hanging; font-family: Optima, Rachana, Sawasdee, sans-serif;">0xDFFFFFFF</text>
    <text x="2.950in" y="0.500in" style="text-anchor: end; dominant-baseline: middle; font-family: Optima, Rachana, Sawasdee, sans-serif;">48.0 MiB</text>
    <rect x="0in" y="1in" width="1.500in" height="1in" fill="#C7E3EC" stroke="#336DA5" stroke-width="0.028in"/>
    <text x="0.750in" y="1.333in" style="text-anchor: middle; dominant-baseline: middle; font-family: Optima, Rachana, Sawasdee, sans-serif;">DDR</text>
    <text x="0.750in" y="1.500in" style="text-anchor: middle; dominant-baseline: middle; font-family: Optima, Rachana, Sawasdee, sans-serif;">C66X_1</text>
    <text x="0.750in" y="1.667in" style="text-anchor: middle; dominant-baseline: middle; font-family: Optima, Rachana, Sawasdee, sans-serif;">LOCAL HEAP</text>
    <text x="1.550in" y="2in" style="dominant-baseline: middle; font-family: Optima, Rachana, Sawasdee, sans-serif;">0xDC000000</text>
    <text x="2.950in" y="1.500in" style="text-anchor: end; dominant-baseline: middle; font-family: Optima, Rachana, Sawasdee, sans-serif;">16.0 MiB</text>
    <path fill="#fff" stroke="none" d="M 0 192 L 0 219.40 C 5.20 224.60 10.40 224.60 15.60 219.40 C 20.80 214.20 123.20 224.60 128.40 219.40 C 133.60 214.20 138.80 214.20 144 219.40 L 144 192 M 0 252 L 0 224.60 C 5.20 229.80 10.40 229.80 15.60 224.60 C 20.80 219.40 123.20 229.80 128.40 224.60 C 133.60 219.40 138.80 219.40 144 224.60 L 144 252"/>
    <path fill="none" stroke="#336DA5" stroke-width="0.028in" d="M 0 192 L 0 219.40 M -15.60 219.40 C -10.40 214.20 -5.20 214.20 0 219.40 C 5.20 224.60 10.40 224.60 15.60 219.40 M 0 252 L 0 224.60 M -15.60 224.60 C -10.40 219.40 -5.20 219.40 0 224.60 C 5.20 229.80 10.40 229.80 15.60 224.60 M 144 192 L 144 219.40 M 128.40 219.40 C 133.60 214.20 138.80 214.20 144 219.40 C 149.20 224.60 154.40 224.60 159.60 219.40 M 144 252 L 144 224.60 M 128.40 224.60 C 133.60 219.40 138.80 219.40 144 224.60 C 149.20 229.80 154.40 229.80 159.60 224.60"/>
    <text x="1.550in" y="2.625in" style="dominant-baseline: middle; font-family: Optima, Rachana, Sawasdee, sans-serif;">0xD8000000</text>
    <text x="2.950in" y="2.312in" style="text-anchor: end; dominant-baseline: middle; font-family: Optima, Rachana, Sawasdee, sans-serif;">64.0 MiB</text>
    <rect x="0in" y="2.625in" width="1.500in" height="1in" fill="#C7E3EC" stroke="#336DA5" stroke-width="0.028in"/>
    <text x="0.750in" y="3.042in" style="text-anchor: middle; dominant-baseline: middle; font-family: Optima, Rachana, Sawasdee, sans-serif;">DDR</text>
    <text x="0.750in" y="3.208in" style="text-anchor: middle; dominant-baseline: middle; font-family: Optima, Rachana, Sawasdee, sans-serif;">SHARED MEM</text>
    <text x="1.550in" y="3.625in" style="dominant-baseline: middle; font-family: Optima, Rachana, Sawasdee, sans-serif;">0xB8000000</text>
    <text x="2.950in" y="3.125in" style="text-anchor: end; dominant-baseline: middle; font-family: Optima, Rachana, Sawasdee, sans-serif;">512.0 MiB</text>
    <path fill="#fff" stroke="none" d="M 0 348 L 0 375.40 C 5.20 380.60 10.40 380.60 15.60 375.40 C 20.80 370.20 123.20 380.60 128.40 375.40 C 133.60 370.20 138.80 370.20 144 375.40 L 144 348 M 0 408 L 0 380.60 C 5.20 385.80 10.40 385.80 15.60 380.60 C 20.80 375.40 123.20 385.80 128.40 380.60 C 133.60 375.40 138.80 375.40 144 380.60 L 144 408"/>
    <path fill="none" stroke="#336DA5" stroke-width="0.028in" d="M 0 348 L 0 375.40 M -15.60 375.40 C -10.40 370.20 -5.20 370.20 0 375.40 C 5.20 380.60 10.40 380.60 15.60 375.40 M 0 408 L 0 380.60 M -15.60 380.60 C -10.40 375.40 -5.20 375.40 0 380.60 C 5.20 385.80 10.40 385.80 15.60 380.60 M 144 348 L 144 375.40 M 128.40 375.40 C 133.60 370.20 138.80 370.20 144 375.40 C 149.20 380.60 154.40 380.60 159.60 375.40 M 144 408 L 144 380.60 M 128.40 380.60 C 133.60 375.40 138.80 375.40 144 380.60 C 149.20 385.80 154.40 385.80 159.60 380.60"/>
    <text x="1.550in" y="4.250in" style="dominant-baseline: middle; font-family: Optima, Rachana, Sawasdee, sans-serif;">0xB0400000</text>
    <text x="2.950in" y="3.938in" style="text-anchor: end; dominant-baseline: middle; font-family: Optima, Rachana, Sawasdee, sans-serif;">124.0 MiB</text>
    <rect x="0in" y="4.250in" width="1.500in" height="1in" fill="#C7E3EC" stroke="#336DA5" stroke-width="0.028in"/>
    <text x="0.750in" y="4.667in" style="text-anchor: middle; dominant-baseline: middle; font-family: Optima, Rachana, Sawasdee, sans-serif;">APP</text>
    <text x="0.750in" y="4.833in" style="text-anchor: middle; dominant-baseline: middle; font-family: Optima, Rachana, Sawasdee, sans-serif;">FILEIO MEM</text>
    <text x="1.550in" y="5.250in" style="dominant-baseline: middle; font-family: Optima, Rachana, Sawasdee, sans-serif;">0xB0000000</text>
    <text x="2.950in" y="4.750in" style="text-anchor: end; dominant-baseline: middle; font-family: Optima, Rachana, Sawasdee, sans-serif;">4.0 MiB</text>
    <rect x="0in" y="5.250in" width="1.500in" height="1in" fill="#C7E3EC" stroke="#336DA5" stroke-width="0.028in"/>
    <text x="0.750in" y="5.583in" style="text-anchor: middle; dominant-baseline: middle; font-family: Optima, Rachana, Sawasdee, sans-serif;">TIOVX</text>
    <text x="0.750in" y="5.750in" style="text-anchor: middle; dominant-baseline: middle; font-family: Optima, Rachana, Sawasdee, sans-serif;">OBJ DESC</text>
    <text x="0.750in" y="5.917in" style="text-anchor: middle; dominant-baseline: middle; font-family: Optima, Rachana, Sawasdee, sans-serif;">MEM</text>
    <text x="1.550in" y="6.250in" style="dominant-baseline: middle; font-family: Optima, Rachana, Sawasdee, sans-serif;">0xAC040000</text>
    <text x="2.950in" y="5.750in" style="text-anchor: end; dominant-baseline: middle; font-family: Optima, Rachana, Sawasdee, sans-serif;">65280.0 KiB</text>
    <path fill="#fff" stroke="none" d="M 0 600 L 0 627.40 C 5.20 632.60 10.40 632.60 15.60 627.40 C 20.80 622.20 123.20 632.60 128.40 627.40 C 133.60 622.20 138.80 622.20 144 627.40 L 144 600 M 0 660 L 0 632.60 C 5.20 637.80 10.40 637.80 15.60 632.60 C 20.80 627.40 123.20 637.80 128.40 632.60 C 133.60 627.40 138.80 627.40 144 632.60 L 144 660"/>
    <path fill="none" stroke="#336DA5" stroke-width="0.028in" d="M 0 600 L 0 627.40 M -15.60 627.40 C -10.40 622.20 -5.20 622.20 0 627.40 C 5.20 632.60 10.40 632.60 15.60 627.40 M 0 660 L 0 632.60 M -15.60 632.60 C -10.40 627.40 -5.20 627.40 0 632.60 C 5.20 637.80 10.40 637.80 15.60 632.60 M 144 600 L 144 627.40 M 128.40 627.40 C 133.60 622.20 138.80 622.20 144 627.40 C 149.20 632.60 154.40 632.60 159.60 627.40 M 144 660 L 144 632.60 M 128.40 632.60 C 133.60 627.40 138.80 627.40 144 632.60 C 149.20 637.80 154.40 637.80 159.60 632.60"/>
    <text x="1.550in" y="6.875in" style="dominant-baseline: middle; font-family: Optima, Rachana, Sawasdee, sans-serif;">0xAA040000</text>
    <text x="2.950in" y="6.562in" style="text-anchor: end; dominant-baseline: middle; font-family: Optima, Rachana, Sawasdee, sans-serif;">32.0 MiB</text>
    <rect x="0in" y="6.875in" width="1.500in" height="1in" fill="#C7E3EC" stroke="#336DA5" stroke-width="0.028in"/>
    <text x="0.750in" y="7.292in" style="text-anchor: middle; dominant-baseline: middle; font-family: Optima, Rachana, Sawasdee, sans-serif;">APP LOG</text>
    <text x="0.750in" y="7.458in" style="text-anchor: middle; dominant-baseline: middle; font-family: Optima, Rachana, Sawasdee, sans-serif;">MEM</text>
    <text x="1.550in" y="7.875in" style="dominant-baseline: middle; font-family: Optima, Rachana, Sawasdee, sans-serif;">0xAA000000</text>
    <text x="2.950in" y="7.375in" style="text-anchor: end; dominant-baseline: middle; font-family: Optima, Rachana, Sawasdee, sans-serif;">256.0 KiB</text>
    <path fill="#fff" stroke="none" d="M 0 756 L 0 783.40 C 5.20 788.60 10.40 788.60 15.60 783.40 C 20.80 778.20 123.20 788.60 128.40 783.40 C 133.60 778.20 138.80 778.20 144 783.40 L 144 756 M 0 816 L 0 788.60 C 5.20 793.80 10.40 793.80 15.60 788.60 C 20.80 783.40 123.20 793.80 128.40 788.60 C 133.60 783.40 138.80 783.40 144 788.60 L 144 816"/>
    <path fill="none" stroke="#336DA5" stroke-width="0.028in" d="M 0 756 L 0 783.40 M -15.60 783.40 C -10.40 778.20 -5.20 778.20 0 783.40 C 5.20 788.60 10.40 788.60 15.60 783.40 M 0 816 L 0 788.60 M -15.60 788.60 C -10.40 783.40 -5.20 783.40 0 788.60 C 5.20 793.80 10.40 793.80 15.60 788.60 M 144 756 L 144 783.40 M 128.40 783.40 C 133.60 778.20 138.80 778.20 144 783.40 C 149.20 788.60 154.40 788.60 159.60 783.40 M 144 816 L 144 788.60 M 128.40 788.60 C 133.60 783.40 138.80 783.40 144 788.60 C 149.20 793.80 154.40 793.80 159.60 788.60"/>
    <text x="1.550in" y="8.500in" style="dominant-baseline: middle; font-family: Optima, Rachana, Sawasdee, sans-serif;">0xA9100000</text>
    <text x="2.950in" y="8.188in" style="text-anchor: end; dominant-baseline: middle; font-family: Optima, Rachana, Sawasdee, sans-serif;">15.0 MiB</text>
    <rect x="0in" y="8.500in" width="1.500in" height="1in" fill="#C7E3EC" stroke="#336DA5" stroke-width="0.028in"/>
    <text x="0.750in" y="8.917in" style="text-anchor: middle; dominant-baseline: middle; font-family: Optima, Rachana, Sawasdee, sans-serif;">DDR C66x_1</text>
    <text x="0.750in" y="9.083in" style="text-anchor: middle; dominant-baseline: middle; font-family: Optima, Rachana, Sawasdee, sans-serif;">IPC</text>
    <text x="1.550in" y="9.500in" style="dominant-baseline: middle; font-family: Optima, Rachana, Sawasdee, sans-serif;">0xA9000000</text>
    <text x="2.950in" y="9in" style="text-anchor: end; dominant-baseline: middle; font-family: Optima, Rachana, Sawasdee, sans-serif;">1.0 MiB</text>
    <path fill="#fff" stroke="none" d="M 0 912 L 0 939.40 C 5.20 944.60 10.40 944.60 15.60 939.40 C 20.80 934.20 123.20 944.60 128.40 939.40 C 133.60 934.20 138.80 934.20 144 939.40 L 144 912 M 0 972 L 0 944.60 C 5.20 949.80 10.40 949.80 15.60 944.60 C 20.80 939.40 123.20 949.80 128.40 944.60 C 133.60 939.40 138.80 939.40 144 944.60 L 144 972"/>
    <path fill="none" stroke="#336DA5" stroke-width="0.028in" d="M 0 912 L 0 939.40 M -15.60 939.40 C -10.40 934.20 -5.20 934.20 0 939.40 C 5.20 944.60 10.40 944.60 15.60 939.40 M 0 972 L 0 944.60 M -15.60 944.60 C -10.40 939.40 -5.20 939.40 0 944.60 C 5.20 949.80 10.40 949.80 15.60 944.60 M 144 912 L 144 939.40 M 128.40 939.40 C 133.60 934.20 138.80 934.20 144 939.40 C 149.20 944.60 154.40 944.60 159.60 939.40 M 144 972 L 144 944.60 M 128.40 944.60 C 133.60 939.40 138.80 939.40 144 944.60 C 149.20 949.80 154.40 949.80 159.60 944.60"/>
    <text x="1.550in" y="10.125in" style="dominant-baseline: middle; font-family: Optima, Rachana, Sawasdee, sans-serif;">0xA8200400</text>
    <text x="2.950in" y="9.812in" style="text-anchor: end; dominant-baseline: middle; font-family: Optima, Rachana, Sawasdee, sans-serif;">14335.0 KiB</text>
    <rect x="0in" y="10.125in" width="1.500in" height="0.675in" fill="#C7E3EC" stroke="#336DA5" stroke-width="0.028in"/>
    <text x="0.750in" y="10.379in" style="text-anchor: middle; dominant-baseline: middle; font-family: Optima, Rachana, Sawasdee, sans-serif;">DDR C66x_1</text>
    <text x="0.750in" y="10.546in" style="text-anchor: middle; dominant-baseline: middle; font-family: Optima, Rachana, Sawasdee, sans-serif;">BOOT</text>
    <text x="1.550in" y="10.800in" style="dominant-baseline: middle; font-family: Optima, Rachana, Sawasdee, sans-serif;">0xA8200000</text>
    <text x="2.950in" y="10.463in" style="text-anchor: end; dominant-baseline: middle; font-family: Optima, Rachana, Sawasdee, sans-serif;">1.0 KiB</text>
    <path fill="#fff" stroke="none" d="M 0 1036.80 L 0 1064.20 C 5.20 1069.40 10.40 1069.40 15.60 1064.20 C 20.80 1059 123.20 1069.40 128.40 1064.20 C 133.60 1059 138.80 1059 144 1064.20 L 144 1036.80 M 0 1096.80 L 0 1069.40 C 5.20 1074.60 10.40 1074.60 15.60 1069.40 C 20.80 1064.20 123.20 1074.60 128.40 1069.40 C 133.60 1064.20 138.80 1064.20 144 1069.40 L 144 1096.80"/>
    <path fill="none" stroke="#336DA5" stroke-width="0.028in" d="M 0 1036.80 L 0 1064.20 M -15.60 1064.20 C -10.40 1059 -5.20 1059 0 1064.20 C 5.20 1069.40 10.40 1069.40 15.60 1064.20 M 0 1096.80 L 0 1069.40 M -15.60 1069.40 C -10.40 1064.20 -5.20 1064.20 0 1069.40 C 5.20 1074.60 10.40 1074.60 15.60 1069.40 M 144 1036.80 L 144 1064.20 M 128.40 1064.20 C 133.60 1059 138.80 1059 144 1064.20 C 149.20 1069.40 154.40 1069.40 159.60 1064.20 M 144 1096.80 L 144 1069.40 M 128.40 1069.40 C 133.60 1064.20 138.80 1064.20 144 1069.40 C 149.20 1074.60 154.40 1074.60 159.60 1069.40"/>
    <text x="1.550in" y="11.425in" style="dominant-baseline: middle; font-family: Optima, Rachana, Sawasdee, sans-serif;">0xA7000000</text>
    <text x="2.950in" y="11.113in" style="text-anchor: end; dominant-baseline: middle; font-family: Optima, Rachana, Sawasdee, sans-serif;">18.0 MiB</text>
    <rect x="0in" y="11.425in" width="1.500in" height="1in" fill="#C7E3EC" stroke="#336DA5" stroke-width="0.028in"/>
    <text x="0.750in" y="11.925in" style="text-anchor: middle; dominant-baseline: middle; font-family: Optima, Rachana, Sawasdee, sans-serif;">DDR C66x_1</text>
    <text x="1.550in" y="12.425in" style="dominant-baseline: middle; font-family: Optima, Rachana, Sawasdee, sans-serif;">0xA6200400</text>
    <text x="2.950in" y="11.925in" style="text-anchor: end; dominant-baseline: middle; font-family: Optima, Rachana, Sawasdee, sans-serif;">14335.0 KiB</text>
    <path fill="#fff" stroke="none" d="M 0 1192.80 L 0 1220.20 C 5.20 1225.40 10.40 1225.40 15.60 1220.20 C 20.80 1215 123.20 1225.40 128.40 1220.20 C 133.60 1215 138.80 1215 144 1220.20 L 144 1192.80 M 0 1252.80 L 0 1225.40 C 5.20 1230.60 10.40 1230.60 15.60 1225.40 C 20.80 1220.20 123.20 1230.60 128.40 1225.40 C 133.60 1220.20 138.80 1220.20 144 1225.40 L 144 1252.80"/>
    <path fill="none" stroke="#336DA5" stroke-width="0.028in" d="M 0 1192.80 L 0 1220.20 M -15.60 1220.20 C -10.40 1215 -5.20 1215 0 1220.20 C 5.20 1225.40 10.40 1225.40 15.60 1220.20 M 0 1252.80 L 0 1225.40 M -15.60 1225.40 C -10.40 1220.20 -5.20 1220.20 0 1225.40 C 5.20 1230.60 10.40 1230.60 15.60 1225.40 M 144 1192.80 L 144 1220.20 M 128.40 1220.20 C 133.60 1215 138.80 1215 144 1220.20 C 149.20 1225.40 154.40 1225.40 159.60 1220.20 M 144 1252.80 L 144 1225.40 M 128.40 1225.40 C 133.60 1220.20 138.80 1220.20 144 1225.40 C 149.20 1230.60 154.40 1230.60 159.60 1225.40"/>
    <text x="1.550in" y="13.050in" style="dominant-baseline: middle; font-family: Optima, Rachana, Sawasdee, sans-serif;">0xA6100400</text>
    <text x="2.950in" y="12.738in" style="text-anchor: end; dominant-baseline: middle; font-family: Optima, Rachana, Sawasdee, sans-serif;">1.0 MiB</text>
    <rect x="0in" y="13.050in" width="1.500in" height="0.675in" fill="#C7E3EC" stroke="#336DA5" stroke-width="0.028in"/>
    <text x="0.750in" y="13.304in" style="text-anchor: middle; dominant-baseline: middle; font-family: Optima, Rachana, Sawasdee, sans-serif;">DDR C66x_1</text>
    <text x="0.750in" y="13.471in" style="text-anchor: middle; dominant-baseline: middle; font-family: Optima, Rachana, Sawasdee, sans-serif;">RESOURCE TABLE</text>
    <text x="1.550in" y="13.725in" style="dominant-baseline: middle; font-family: Optima, Rachana, Sawasdee, sans-serif;">0xA6100000</text>
    <text x="2.950in" y="13.388in" style="text-anchor: end; dominant-baseline: middle; font-family: Optima, Rachana, Sawasdee, sans-serif;">1.0 KiB</text>
    <path fill="#fff" stroke="none" d="M 0 1317.60 L 0 1345 C 5.20 1350.20 10.40 1350.20 15.60 1345 C 20.80 1339.80 123.20 1350.20 128.40 1345 C 133.60 1339.80 138.80 1339.80 144 1345 L 144 1317.60 M 0 1377.60 L 0 1350.20 C 5.20 1355.40 10.40 1355.40 15.60 1350.20 C 20.80 1345 123.20 1355.40 128.40 1350.20 C 133.60 1345 138.80 1345 144 1350.20 L 144 1377.60"/>
    <path fill="none" stroke="#336DA5" stroke-width="0.028in" d="M 0 1317.60 L 0 1345 M -15.60 1345 C -10.40 1339.80 -5.20 1339.80 0 1345 C 5.20 1350.20 10.40 1350.20 15.60 1345 M 0 1377.60 L 0 1350.20 M -15.60 1350.20 C -10.40 1345 -5.20 1345 0 1350.20 C 5.20 1355.40 10.40 1355.40 15.60 1350.20 M 144 1317.60 L 144 1345 M 128.40 1345 C 133.60 1339.80 138.80 1339.80 144 1345 C 149.20 1350.20 154.40 1350.20 159.60 1345 M 144 1377.60 L 144 1350.20 M 128.40 1350.20 C 133.60 1345 138.80 1345 144 1350.20 C 149.20 1355.40 154.40 1355.40 159.60 1350.20"/>
    <text x="1.550in" y="14.350in" style="dominant-baseline: middle; font-family: Optima, Rachana, Sawasdee, sans-serif;">0x838000</text>
    <text x="2.950in" y="14.038in" style="text-anchor: end; dominant-baseline: middle; font-family: Optima, Rachana, Sawasdee, sans-serif;">2712352.0 KiB</text>
    <rect x="0in" y="14.350in" width="1.500in" height="1in" fill="#C7E3EC" stroke="#336DA5" stroke-width="0.028in"/>
    <text x="0.750in" y="14.767in" style="text-anchor: middle; dominant-baseline: middle; font-family: Optima, Rachana, Sawasdee, sans-serif;">L2RAM</text>
    <text x="0.750in" y="14.933in" style="text-anchor: middle; dominant-baseline: middle; font-family: Optima, Rachana, Sawasdee, sans-serif;">C66x_1</text>
    <text x="1.550in" y="15.300in" style="font-family: Optima, Rachana, Sawasdee, sans-serif;">0x800000</text>
    <text x="2.950in" y="14.850in" style="text-anchor: end; dominant-baseline: middle; font-family: Optima, Rachana, Sawasdee, sans-serif;">224.0 KiB</text>
  </g>
</g>

</svg>
